# Converted from cube.smeg
o cube

# bounds: -0.5 -0.5 -0.5 0.5 0.5 0.5

v -0.5000000000 0.5000000000 -0.5000000000
vt 0.0000000000 0.0000000000
vn -1.0000000000 0.0000000000 0.0000000000
v -0.5000000000 -0.5000000000 0.5000000000
vt 1.0000000000 1.0000000000
vn -1.0000000000 0.0000000000 0.0000000000
v -0.5000000000 0.5000000000 0.5000000000
vt 1.0000000000 0.0000000000
vn -1.0000000000 0.0000000000 0.0000000000
v -0.5000000000 -0.5000000000 -0.5000000000
vt 0.0000000000 1.0000000000
vn -1.0000000000 0.0000000000 0.0000000000

usemtl tex5
g face_0000
f 1/1/1 2/2/2 3/3/3
f 2/2/2 1/1/1 4/4/4

v 0.5000000000 -0.5000000000 -0.5000000000
vt 0.0000000000 0.0000000000
vn 0.0000000000 -1.0000000000 0.0000000000
v -0.5000000000 -0.5000000000 0.5000000000
vt 1.0000000000 1.0000000000
vn 0.0000000000 -1.0000000000 0.0000000000
v -0.5000000000 -0.5000000000 -0.5000000000
vt 1.0000000000 0.0000000000
vn 0.0000000000 -1.0000000000 0.0000000000
v 0.5000000000 -0.5000000000 0.5000000000
vt 0.0000000000 1.0000000000
vn 0.0000000000 -1.0000000000 0.0000000000

usemtl tex0
g face_0001
f 5/5/5 6/6/6 7/7/7
f 6/6/6 5/5/5 8/8/8

v 0.5000000000 -0.5000000000 -0.5000000000
vt 1.0000000000 1.0000000000
vn 1.0000000000 0.0000000000 0.0000000000
v 0.5000000000 0.5000000000 0.5000000000
vt 0.0000000000 0.0000000000
vn 1.0000000000 0.0000000000 0.0000000000
v 0.5000000000 -0.5000000000 0.5000000000
vt 0.0000000000 1.0000000000
vn 1.0000000000 0.0000000000 0.0000000000
v 0.5000000000 0.5000000000 -0.5000000000
vt 1.0000000000 0.0000000000
vn 1.0000000000 0.0000000000 0.0000000000

usemtl tex3
g face_0002
f 9/9/9 10/10/10 11/11/11
f 10/10/10 9/9/9 12/12/12

v 0.5000000000 0.5000000000 0.5000000000
vt 1.0000000000 1.0000000000
vn 0.0000000000 1.0000000000 0.0000000000
v -0.5000000000 0.5000000000 -0.5000000000
vt 0.0000000000 0.0000000000
vn 0.0000000000 1.0000000000 0.0000000000
v -0.5000000000 0.5000000000 0.5000000000
vt 0.0000000000 1.0000000000
vn 0.0000000000 1.0000000000 0.0000000000
v 0.5000000000 0.5000000000 -0.5000000000
vt 1.0000000000 0.0000000000
vn 0.0000000000 1.0000000000 0.0000000000

usemtl tex1
g face_0003
f 13/13/13 14/14/14 15/15/15
f 14/14/14 13/13/13 16/16/16

v -0.5000000000 0.5000000000 -0.5000000000
vt 1.0000000000 0.0000000000
vn 0.0000000000 0.0000000000 -1.0000000000
v 0.5000000000 -0.5000000000 -0.5000000000
vt 0.0000000000 1.0000000000
vn 0.0000000000 0.0000000000 -1.0000000000
v -0.5000000000 -0.5000000000 -0.5000000000
vt 1.0000000000 1.0000000000
vn 0.0000000000 0.0000000000 -1.0000000000
v 0.5000000000 0.5000000000 -0.5000000000
vt 0.0000000000 0.0000000000
vn 0.0000000000 0.0000000000 -1.0000000000

usemtl tex4
g face_0004
f 17/17/17 18/18/18 19/19/19
f 18/18/18 17/17/17 20/20/20

v 0.5000000000 0.5000000000 0.5000000000
vt 1.0000000000 0.0000000000
vn 0.0000000000 0.0000000000 1.0000000000
v -0.5000000000 -0.5000000000 0.5000000000
vt 0.0000000000 1.0000000000
vn 0.0000000000 0.0000000000 1.0000000000
v 0.5000000000 -0.5000000000 0.5000000000
vt 1.0000000000 1.0000000000
vn 0.0000000000 0.0000000000 1.0000000000
v -0.5000000000 0.5000000000 0.5000000000
vt 0.0000000000 0.0000000000
vn 0.0000000000 0.0000000000 1.0000000000

usemtl tex2
g face_0005
f 21/21/21 22/22/22 23/23/23
f 22/22/22 21/21/21 24/24/24

